<svg width="15" height="15" viewBox="0 0 15 15" fill="none" xmlns="http://www.w3.org/2000/svg">
<path fill-rule="evenodd" clip-rule="evenodd" d="M7.49948 0.850098C3.82779 0.850098 0.850098 3.82739 0.850098 7.50032C0.850098 10.438 2.75535 12.9307 5.39787 13.8105C5.73059 13.8713 5.85183 13.6659 5.85183 13.4896C5.85183 13.3316 5.84612 12.9136 5.84285 12.3588C3.99313 12.7605 3.60285 11.4672 3.60285 11.4672C3.30034 10.6989 2.86435 10.4943 2.86435 10.4943C2.26056 10.082 2.91007 10.0902 2.91007 10.0902C3.57754 10.1371 3.92862 10.7756 3.92862 10.7756C4.52179 11.7917 5.48524 11.4982 5.86408 11.328C5.9245 10.8985 6.09637 10.6054 6.2862 10.4392C4.8096 10.271 3.25707 9.70072 3.25707 7.1525C3.25707 6.42624 3.5163 5.83307 3.94169 5.36809C3.87311 5.19989 3.6449 4.52384 4.00701 3.60816C4.00701 3.60816 4.56506 3.42935 5.8355 4.2895C6.3658 4.14213 6.93489 4.06865 7.5003 4.06579C8.0653 4.06865 8.63398 4.14213 9.1651 4.2895C10.4347 3.42935 10.9919 3.60816 10.9919 3.60816C11.3549 4.52384 11.1267 5.19989 11.0585 5.36809C11.4847 5.83307 11.7419 6.42624 11.7419 7.1525C11.7419 9.70725 10.1869 10.2694 8.70583 10.4339C8.94424 10.6393 9.15693 11.0451 9.15693 11.6656C9.15693 12.5543 9.14877 13.2716 9.14877 13.4896C9.14877 13.6676 9.26879 13.8746 9.606 13.8096C12.2465 12.9283 14.1501 10.4376 14.1501 7.50032C14.1501 3.82739 11.1724 0.850098 7.49948 0.850098Z" fill="white"/>
</svg>
