<svg width="15" height="15" viewBox="0 0 15 15" fill="none" xmlns="http://www.w3.org/2000/svg">
<path fill-rule="evenodd" clip-rule="evenodd" d="M7.23348 4.69632C7.23348 2.96887 8.63347 1.5686 10.3601 1.5686C11.3737 1.5686 12.1831 2.04807 12.7255 2.74388C13.308 2.6247 13.8558 2.40916 14.3514 2.11511C14.156 2.72601 13.7425 3.23963 13.2034 3.56466C13.2039 3.56571 13.2043 3.56677 13.2048 3.56782C13.7335 3.50364 14.2365 3.36305 14.7049 3.15549L14.7038 3.15718C14.3668 3.66186 13.9432 4.10739 13.4562 4.47037C13.4824 4.64675 13.4957 4.8243 13.4957 5.00082C13.4957 8.68713 10.6874 12.9746 5.52134 12.9746C3.93918 12.9746 2.46556 12.511 1.22517 11.7152C0.992754 11.5661 0.92523 11.2568 1.07435 11.0244C1.08752 11.0038 1.10195 10.9846 1.11746 10.9666C1.20594 10.8202 1.3745 10.7309 1.55552 10.7522C2.47078 10.8601 3.3858 10.7485 4.19231 10.3962C3.39238 10.0434 2.77141 9.35978 2.50216 8.51977C2.45371 8.36863 2.48847 8.20314 2.59363 8.08425C2.59728 8.08013 2.60099 8.07609 2.60476 8.07213C1.96403 7.50822 1.55985 6.68211 1.55985 5.76146V5.72762C1.55985 5.56817 1.64423 5.42062 1.78167 5.33977C1.82683 5.3132 1.87549 5.29514 1.92544 5.28561C1.70561 4.86157 1.58128 4.37987 1.58128 3.86961C1.58128 3.40168 1.58396 2.81195 1.91344 2.28084C1.9873 2.16178 2.1077 2.08918 2.23652 2.07198C2.426 2.0124 2.64099 2.06972 2.77418 2.23305C3.86548 3.57129 5.44078 4.49586 7.23378 4.73964L7.23348 4.69632ZM5.52134 11.9746C4.73399 11.9746 3.97793 11.8435 3.2726 11.6023C4.13024 11.4538 4.95319 11.1159 5.6623 10.5602C5.81223 10.4427 5.87194 10.2435 5.81138 10.0629C5.75082 9.88237 5.58312 9.75946 5.39267 9.7561C4.6898 9.74369 4.06724 9.39719 3.67805 8.86848C3.8684 8.85309 4.0544 8.82042 4.23457 8.7717C4.43615 8.71719 4.57375 8.53117 4.56686 8.32246C4.55997 8.11375 4.41041 7.93721 4.20567 7.8961C3.42706 7.7398 2.79895 7.16767 2.56181 6.42177C2.76267 6.47028 2.97114 6.49913 3.18494 6.50613C3.38575 6.5127 3.56658 6.38536 3.62807 6.19408C3.68955 6.0028 3.61678 5.79394 3.44975 5.68227C2.86535 5.29158 2.48128 4.62467 2.48128 3.86961C2.48128 3.70216 2.48364 3.55271 2.49367 3.41722C3.85127 4.79916 5.70885 5.68934 7.776 5.79341C7.93237 5.80129 8.0834 5.73546 8.18407 5.61556C8.28475 5.49565 8.32344 5.33551 8.28863 5.18287C8.25267 5.0252 8.23348 4.86287 8.23348 4.69632C8.23348 3.52088 9.18603 2.5686 10.3601 2.5686C11.5944 2.5686 12.4957 3.71211 12.4957 5.00082C12.4957 8.25712 10.0203 11.9746 5.52134 11.9746Z" fill="white"/>
</svg>
